<svg width="178" height="64" viewBox="0 0 178 64" xmlns="http://www.w3.org/2000/svg">
    <defs>
        <linearGradient x1="-.013%" y1="50.292%" x2="99.977%" y2="50.292%" id="a">
            <stop stop-color="#E52320" offset="0%"/>
            <stop stop-color="#5F2161" offset="100%"/>
        </linearGradient>
        <linearGradient x1="49.658%" y1="100.075%" x2="49.658%" y2=".084%" id="b">
            <stop stop-color="#F7EB5E" offset="0%"/>
            <stop stop-color="#EB601C" offset="100%"/>
        </linearGradient>
        <linearGradient x1="50.049%" y1="99.984%" x2="50.049%" y2=".07%" id="c">
            <stop stop-color="#FDC848" offset="0%"/>
            <stop stop-color="#F59C21" offset="99.46%"/>
        </linearGradient>
        <linearGradient x1="49.848%" y1="100.028%" x2="49.848%" y2=".193%" id="d">
            <stop stop-color="#F9F093" offset="0%"/>
            <stop stop-color="#FFD258" offset="100%"/>
        </linearGradient>
        <linearGradient x1="49.765%" y1="99.967%" x2="49.765%" y2=".018%" id="e">
            <stop stop-color="#67962F" offset=".224%"/>
            <stop stop-color="#F3E600" offset="100%"/>
        </linearGradient>
        <linearGradient x1="50.101%" y1="99.818%" x2="50.101%" y2="-.131%" id="f">
            <stop stop-color="#CCD736" offset=".224%"/>
            <stop stop-color="#F1E62E" offset="100%"/>
        </linearGradient>
        <linearGradient x1="49.907%" y1="100.028%" x2="49.907%" y2=".193%" id="g">
            <stop stop-color="#A1C337" offset=".224%"/>
            <stop stop-color="#CAD633" offset="100%"/>
        </linearGradient>
        <linearGradient x1=".041%" y1="50.007%" x2="99.99%" y2="50.007%" id="h">
            <stop stop-color="#9C4355" offset="0%"/>
            <stop stop-color="#612160" offset="100%"/>
        </linearGradient>
        <linearGradient x1="-.025%" y1="49.693%" x2="99.924%" y2="49.693%" id="i">
            <stop stop-color="#E5221F" offset="0%"/>
            <stop stop-color="#AD4050" offset="100%"/>
        </linearGradient>
        <linearGradient x1=".116%" y1="49.812%" x2="100.045%" y2="49.812%" id="j">
            <stop stop-color="#0768B1" offset="0%"/>
            <stop stop-color="#156BB3" offset="13.62%"/>
            <stop stop-color="#2E76B9" offset="30.42%"/>
            <stop stop-color="#4E89C3" offset="48.91%"/>
            <stop stop-color="#75A5CE" offset="68.6%"/>
            <stop stop-color="#A4CADB" offset="89.03%"/>
            <stop stop-color="#BFE2E2" offset="100%"/>
        </linearGradient>
        <linearGradient x1=".141%" y1="50.076%" x2="100.09%" y2="50.076%" id="k">
            <stop stop-color="#5FA7CD" offset=".224%"/>
            <stop stop-color="#BEE1E0" offset="100%"/>
        </linearGradient>
        <linearGradient x1="-.025%" y1="50.01%" x2="99.924%" y2="50.01%" id="l">
            <stop stop-color="#0369B1" offset=".224%"/>
            <stop stop-color="#56A3CB" offset="100%"/>
        </linearGradient>
    </defs>
    <g fill-rule="nonzero" fill="none">
        <g fill="#404040">
            <path d="M85.532 41.917c0 3.633 1.792 5.593 1.792 5.593s-2.37 1.845-4.161 1.845c-2.37 0-3.352-4.267-3.352-5.996V25.023h5.78v16.894h-.059zm.463-23.928c0 2.71-.81 3.171-3.294 3.171-2.543 0-3.352-.46-3.352-3.17 0-2.48.809-2.826 3.352-2.826 2.485 0 3.294.346 3.294 2.825M154.247 41.917c0 3.633 1.734 5.593 1.734 5.593s-2.37 1.845-4.16 1.845c-2.37 0-3.353-4.267-3.353-5.996V25.023h5.78v16.894zm.463-23.928c0 2.71-.81 3.171-3.294 3.171-2.543 0-3.352-.46-3.352-3.17 0-2.48.809-2.826 3.352-2.826 2.485 0 3.294.346 3.294 2.825M104.72 30.905s.115-1.154-1.388-1.5a15.203 15.203 0 0 0-3.12-.346c-4.104 0-5.433 1.038-5.433 7.784 0 5.881 1.272 7.38 5.317 7.38 2.543 0 4.681-.807 4.681-2.248v-11.07h-.058zm-6.01 18.22c-6.531 0-9.941-2.71-9.941-12.282 0-9.629 3.583-12.57 11.385-12.57 2.485 0 5.548.347 7.975 1.039 2.543.692 2.312 2.767 2.312 2.767v18.739c0 9.225-5.144 11.243-12.657 11.243-1.791 0-4.045-.23-5.894-.692-2.428-.576-1.56-4.093-1.56-4.093l.288-1.269c2.196.692 4.855 1.153 7.109 1.153 4.392 0 6.935-1.21 6.935-5.535-1.214.75-3.237 1.5-5.953 1.5M144.076 18.681v23.294c0 2.248.52 3.863 1.792 5.535 0 0-4.45 3.632-6.126.692-.925-1.557-1.445-3.46-1.445-6.054V15.106h2.37c3.64 0 3.409 3.575 3.409 3.575M172.452 42.897v-4.785c-1.33-.289-2.947-.404-4.681-.404-3.237 0-4.392.346-4.392 3.402 0 3.171.866 3.69 4.392 3.69 1.213 0 2.427-.173 3.525-.461 1.214-.23 1.156-1.442 1.156-1.442M178 45.32s0 2.076-2.427 2.767c-2.659.75-5.78 1.096-8.265 1.096-7.455 0-9.998-1.73-9.998-7.9 0-6.687 3.757-7.725 9.305-7.725 2.023 0 3.872.23 5.837.634 0-4.094-.983-5.132-5.895-5.132-1.387 0-2.774.116-4.045.346-3.352.635-3.699-1.787-3.699-1.787l-.462-2.133c1.271-.346 2.89-.635 4.565-.923 1.56-.23 3.237-.346 4.855-.346 6.993 0 10.229 2.134 10.229 9.168v11.935zM128.819 42.897v-4.785c-1.33-.289-2.948-.404-4.681-.404-3.237 0-4.393.346-4.393 3.402 0 3.171.867 3.69 4.393 3.69 1.213 0 2.427-.173 3.525-.461 1.214-.23 1.156-1.442 1.156-1.442m5.548 2.422s0 2.076-2.427 2.767c-2.659.75-5.78 1.096-8.265 1.096-7.455 0-9.998-1.73-9.998-7.9 0-6.687 3.757-7.725 9.305-7.725 2.023 0 3.872.23 5.837.634 0-4.094-.983-5.132-5.895-5.132-1.387 0-2.774.116-4.045.346-3.352.635-3.7-1.787-3.7-1.787l-.461-2.133c1.271-.346 2.89-.635 4.565-.923 1.56-.23 3.236-.346 4.855-.346 6.993 0 10.229 2.134 10.229 9.168v11.935z"/>
        </g>
        <path d="M40.57 9.225c1.734-1.153 3.294-2.537 4.624-3.863 0 0-12.715-4.843-22.424-5.189C14.275-.115.347 5.363.347 5.363c.347.345.751.806 1.156 1.152l.057.058.116.115c.058.058.116.116.173.116 4.508 4.497 9.767 5.823 11.154 6.284 5.144 1.672 9.652 1.615 12.368 1.442a31.457 31.457 0 0 0 15.2-5.305" transform="translate(9.247 49.009)" fill="url(#a)"/>
        <path d="M9.131 5.074C7.975 3.344 6.646 1.787 5.375.46c0 0-4.913 12.685-5.26 22.371-.288 8.476 5.26 22.314 5.26 22.314.346-.346.751-.692 1.098-1.096l.058-.057.115-.116c.058-.057.116-.115.116-.172 4.507-4.498 5.837-9.745 6.299-11.128 1.676-5.132 1.618-9.63 1.445-12.34A33.448 33.448 0 0 0 9.13 5.075" transform="translate(49.123 9.225)" fill="url(#b)"/>
        <path d="M13.408.519A1821.27 1821.27 0 0 1 3.236 10.55L.231 13.55c2.312 2.306 5.26 5.592 7.918 9.282C13.87 14.991 18.494 5.535 13.408.52c0 0 0-.058 0 0" transform="translate(41.032 9.225)" fill="url(#c)"/>
        <path d="M13.35 22.717s0 .058 0 0c5.086-5.016.52-14.53-5.201-22.371C5.49 4.036 2.543 7.323.23 9.629l3.005 2.998c3.237 3.287 7.282 7.265 10.114 10.09" transform="translate(41.032 31.712)" fill="url(#d)"/>
        <path d="M5.837 5.074A32.747 32.747 0 0 0 .52 20.295a31.417 31.417 0 0 0 1.445 12.34c.462 1.325 1.791 6.63 6.3 11.127.057.058.115.115.115.173l.115.115s0 .058.058.058c.347.404.752.75 1.098 1.096 0 0 5.548-13.838 5.26-22.314C14.563 13.204 9.65.52 9.65.52 8.322 1.845 6.993 3.344 5.837 5.074" transform="translate(0 9.225)" fill="url(#e)"/>
        <path d="M2.716.519c-5.085 5.016-.52 14.53 5.202 22.371 2.658-3.69 5.605-6.976 7.917-9.283A84704209.534 84704209.534 0 0 0 2.716.52" transform="translate(6.935 9.225)" fill="url(#f)"/>
        <path d="M2.716 22.717c2.832-2.825 6.878-6.803 10.172-10.09l3.005-2.998C13.58 7.323 10.633 4.036 7.975.346 2.196 8.245-2.369 17.7 2.716 22.717c0 .058 0 0 0 0" transform="translate(6.935 31.712)" fill="url(#g)"/>
        <path d="M22.655 13.492c-2.832-2.825-6.82-6.861-10.114-10.148L9.536.346C7.224 2.652 3.93 5.593.23 8.245c7.86 5.708 17.396 10.263 22.424 5.247" transform="translate(31.786 40.937)" fill="url(#h)"/>
        <path d="M.347 13.492c5.028 5.074 14.563.519 22.423-5.19C19.071 5.65 15.777 2.71 13.466.405L10.46 3.402A832.629 832.629 0 0 0 .347 13.492" transform="translate(9.247 40.937)" fill="url(#i)"/>
        <path d="M40.57 5.939A32.922 32.922 0 0 0 25.313.634a31.63 31.63 0 0 0-12.368 1.442C11.616 2.536 6.3 3.863 1.792 8.36c-.058.058-.116.116-.174.116l-.115.115s-.058 0-.058.058c-.405.346-.81.807-1.156 1.153 0 0 13.928 5.477 22.423 5.189 9.71-.346 22.482-5.247 22.482-5.247A25.807 25.807 0 0 0 40.57 5.94" transform="translate(9.247)" fill="url(#j)"/>
        <path d="M22.655 2.249C17.627-2.825 8.09 1.729.23 7.438c3.699 2.652 6.993 5.593 9.305 7.899l3.005-2.998 10.114-10.09" transform="translate(31.786 7.495)" fill="url(#k)"/>
        <path d="M.347 2.249c2.832 2.825 6.82 6.86 10.113 10.147l3.006 2.999c2.311-2.307 5.605-5.247 9.304-7.9C14.91 1.787 5.375-2.768.347 2.25" transform="translate(9.247 7.495)" fill="url(#l)"/>
    </g>
</svg>
